# xmcd CD database file
#
# Track frame offsets:
#	150
#	17783
#	32688
#	47800
#	61785
#	78653
#	95596
#	113335
#	133379
#	150882
#	168479
#	184813
#
# Disc length: 2697 seconds
#
# Revision: 0
# Processed by: cddbd v1.5.2PL0 Copyright (c) Steve Scherf et al.
# Submitted via: CDex 1.70beta2
#
DISCID=930a870c
DTITLE=ANA ORQUESTA SAGITARIO - IBIZA DANCING AFTER SUN
DYEAR=1999
DGENRE=Salsa
TTITLE0=BELIEVE
TTITLE1=STRONG ENOUGH
TTITLE2=I WILL SURVIVE
TTITLE3=YOU CAN'T HURRY LOVE
TTITLE4=AY MAMA
TTITLE5=PARA TODA LA VIDA
TTITLE6=CELOS
TTITLE7=CORAZON ESPINADO
TTITLE8=LUNA BONITA
TTITLE9=CANDELA
TTITLE10=MUJER LATINA
TTITLE11=YO NO QUIERO TU QUERER
EXTD=YEAR: 1999
EXTT0=
EXTT1=
EXTT2=
EXTT3=
EXTT4=
EXTT5=
EXTT6=
EXTT7=
EXTT8=
EXTT9=
EXTT10=
EXTT11=
PLAYORDER=
